<?xml version="1.0" encoding="UTF-8"?>
<svg width="27px" height="30px" viewBox="0 0 27 30" version="1.1" xmlns="http://www.w3.org/2000/svg" xmlns:xlink="http://www.w3.org/1999/xlink">
    <!-- Generator: Sketch 54 (76480) - https://sketchapp.com -->
    <title>Group</title>
    <desc>Created with Sketch.</desc>
    <defs>
        <polygon id="path-1" points="21.596129 0.23 21.596129 22.7272727 10.9381548 22.7272727 0.280180645 22.7272727 0.280180645 0.23 21.596129 0.23"></polygon>
    </defs>
    <g id="Mobile----in-progress" stroke="none" stroke-width="1" fill="none" fill-rule="evenodd">
        <g id="M_30_playing_story" transform="translate(-87.000000, -348.000000)">
            <g id="Group" transform="translate(86.437500, 348.000000)">
                <g id="rwnd" transform="translate(0.000000, -0.000000)">
                    <g id="btn_rewind_15">
                        <g id="Page-1" stroke-width="1" transform="translate(4.516129, 5.454545)">
                            <g id="Group-5" transform="translate(0.000000, 0.500545)">
                                <mask id="mask-2" fill="white">
                                    <use xlink:href="#path-1"></use>
                                </mask>
                                <g id="Clip-4"></g>
                                <path d="M11.1315355,22.7272727 C5.14766452,22.7272727 0.280180645,17.5027273 0.280180645,12.0481818 L1.18340645,12.0481818 C1.18340645,17.5027273 5.64624516,21.8181818 11.1315355,21.8181818 C16.4939871,21.8181818 20.6930839,17.2254545 20.6930839,11.4772727 C20.6930839,5.73 16.1661161,1.13909091 10.3872774,1.13909091 L3.61308387,1.13909091 L3.61308387,0.23 L10.3872774,0.23 C16.6728258,0.23 21.5963097,5.22090909 21.5963097,11.4772727 C21.5963097,17.7354545 16.9997935,22.7272727 11.1315355,22.7272727" id="Fill-3" fill="#FFFFFF" mask="url(#mask-2)"></path>
                            </g>
                        </g>
                        <g id="Page-1" stroke-width="1" transform="translate(4.516129, 5.454545)" fill="#FFFFFF" stroke="#FFFFFF">
                            <g id="Group-5" transform="translate(0.000000, 0.500545)">
                                <path d="M11.1315355,22.7272727 C5.14766452,22.7272727 0.280180645,17.5027273 0.280180645,12.0481818 L1.18340645,12.0481818 C1.18340645,17.5027273 5.64624516,21.8181818 11.1315355,21.8181818 C16.4939871,21.8181818 20.6930839,17.2254545 20.6930839,11.4772727 C20.6930839,5.73 16.1661161,1.13909091 10.3872774,1.13909091 L3.61308387,1.13909091 L3.61308387,0.23 L10.3872774,0.23 C16.6728258,0.23 21.5963097,5.22090909 21.5963097,11.4772727 C21.5963097,17.7354545 16.9997935,22.7272727 11.1315355,22.7272727" id="Fill-3"></path>
                            </g>
                        </g>
                        <polygon id="Fill-1" fill="#FFFFFF" points="8.28728013 0 8.28728013 12.64803 0.903225806 6.32339565"></polygon>
                    </g>
                </g>
                <path d="M11.749,21.105 L11.749,14.725 L10.363,15.11 L10.077,14.01 L12.156,13.35 L13.091,13.35 L13.091,21.105 L11.749,21.105 Z M17.491,21.237 C16.314,21.237 15.39,20.764 14.664,20.06 L15.5,19.081 C16.116,19.653 16.765,20.005 17.48,20.005 C18.404,20.005 19.009,19.477 19.009,18.674 L19.009,18.652 C19.009,17.871 18.349,17.376 17.414,17.376 C16.864,17.376 16.391,17.53 15.995,17.717 L15.181,17.178 L15.401,13.405 L20.01,13.405 L20.01,14.604 L16.567,14.604 L16.446,16.408 C16.809,16.276 17.15,16.188 17.667,16.188 C19.163,16.188 20.351,16.98 20.351,18.608 L20.351,18.63 C20.351,20.203 19.196,21.237 17.491,21.237 Z" id="15" fill="#FFFFFF" fill-rule="nonzero"></path>
            </g>
        </g>
    </g>
</svg>