<?xml version="1.0" encoding="UTF-8"?>
<svg width="27px" height="30px" viewBox="0 0 27 30" version="1.1" xmlns="http://www.w3.org/2000/svg" xmlns:xlink="http://www.w3.org/1999/xlink">
    <!-- Generator: Sketch 54 (76480) - https://sketchapp.com -->
    <title>Group 4</title>
    <desc>Created with Sketch.</desc>
    <defs>
        <polygon id="path-1" points="21.596129 0.23 21.596129 22.7272727 10.9381548 22.7272727 0.280180645 22.7272727 0.280180645 0.23 21.596129 0.23"></polygon>
    </defs>
    <g id="Mobile----in-progress" stroke="none" stroke-width="1" fill="none" fill-rule="evenodd">
        <g id="M_30_playing_story" transform="translate(-261.000000, -348.000000)">
            <g id="Group-4" transform="translate(259.812500, 348.000000)">
                <g id="rwnd" transform="translate(14.250000, 15.000000) scale(-1, 1) translate(-14.250000, -15.000000) translate(0.000000, -0.000000)">
                    <g id="btn_rewind_15">
                        <g id="Page-1" stroke-width="1" transform="translate(4.516129, 5.454545)">
                            <g id="Group-5" transform="translate(0.000000, 0.500545)">
                                <mask id="mask-2" fill="white">
                                    <use xlink:href="#path-1"></use>
                                </mask>
                                <g id="Clip-4"></g>
                                <path d="M11.1315355,22.7272727 C5.14766452,22.7272727 0.280180645,17.5027273 0.280180645,12.0481818 L1.18340645,12.0481818 C1.18340645,17.5027273 5.64624516,21.8181818 11.1315355,21.8181818 C16.4939871,21.8181818 20.6930839,17.2254545 20.6930839,11.4772727 C20.6930839,5.73 16.1661161,1.13909091 10.3872774,1.13909091 L3.61308387,1.13909091 L3.61308387,0.23 L10.3872774,0.23 C16.6728258,0.23 21.5963097,5.22090909 21.5963097,11.4772727 C21.5963097,17.7354545 16.9997935,22.7272727 11.1315355,22.7272727" id="Fill-3" fill="#FFFFFF" mask="url(#mask-2)"></path>
                            </g>
                        </g>
                        <g id="Page-1" stroke-width="1" transform="translate(4.516129, 5.454545)" fill="#FFFFFF" stroke="#FFFFFF">
                            <g id="Group-5" transform="translate(0.000000, 0.500545)">
                                <path d="M11.1315355,22.7272727 C5.14766452,22.7272727 0.280180645,17.5027273 0.280180645,12.0481818 L1.18340645,12.0481818 C1.18340645,17.5027273 5.64624516,21.8181818 11.1315355,21.8181818 C16.4939871,21.8181818 20.6930839,17.2254545 20.6930839,11.4772727 C20.6930839,5.73 16.1661161,1.13909091 10.3872774,1.13909091 L3.61308387,1.13909091 L3.61308387,0.23 L10.3872774,0.23 C16.6728258,0.23 21.5963097,5.22090909 21.5963097,11.4772727 C21.5963097,17.7354545 16.9997935,22.7272727 11.1315355,22.7272727" id="Fill-3"></path>
                            </g>
                        </g>
                        <polygon id="Fill-1" fill="#FFFFFF" points="8.28728013 0 8.28728013 12.64803 0.903225806 6.32339565"></polygon>
                    </g>
                </g>
                <path d="M9.549,21.105 L9.549,14.725 L8.163,15.11 L7.877,14.01 L9.956,13.35 L10.891,13.35 L10.891,21.105 L9.549,21.105 Z M15.291,21.237 C14.114,21.237 13.19,20.764 12.464,20.06 L13.3,19.081 C13.916,19.653 14.565,20.005 15.28,20.005 C16.204,20.005 16.809,19.477 16.809,18.674 L16.809,18.652 C16.809,17.871 16.149,17.376 15.214,17.376 C14.664,17.376 14.191,17.53 13.795,17.717 L12.981,17.178 L13.201,13.405 L17.81,13.405 L17.81,14.604 L14.367,14.604 L14.246,16.408 C14.609,16.276 14.95,16.188 15.467,16.188 C16.963,16.188 18.151,16.98 18.151,18.608 L18.151,18.63 C18.151,20.203 16.996,21.237 15.291,21.237 Z" id="15" fill="#FFFFFF" fill-rule="nonzero"></path>
            </g>
        </g>
    </g>
</svg>